<svg width="400" height="400" viewBox="0 0 400 400" fill="none" xmlns="http://www.w3.org/2000/svg">
<path d="M239.387 27.7333C227.653 24.0267 215.173 22 202.213 22C164.4 22 130.56 39.0933 108 65.9467L166.133 114.853L239.387 27.7333Z" fill="#1A73E8"/>
<path d="M107.973 65.9467C90 87.3333 79.1467 114.933 79.1467 145.04C79.1467 168.187 83.76 186.933 91.3333 203.733L166.107 114.853L107.973 65.9467Z" fill="#EA4335"/>
<path d="M202.213 98C228.213 98 249.28 119.067 249.28 145.067C249.28 156.64 245.093 167.253 238.16 175.44C238.16 175.44 275.333 131.227 311.413 88.3467C296.507 59.68 270.667 37.6267 239.413 27.7333L166.107 114.853C174.747 104.533 187.707 98 202.213 98Z" fill="#4285F4"/>
<path d="M202.213 192.107C176.213 192.107 155.147 171.04 155.147 145.04C155.147 133.547 159.28 123.013 166.107 114.827L91.3333 203.733C104.107 232.08 125.36 254.827 147.253 283.493L238.133 175.44C229.52 185.627 216.613 192.107 202.213 192.107Z" fill="#FBBC04"/>
<path d="M236.347 312.987C277.387 248.8 325.253 219.653 325.253 145.04C325.253 124.587 320.24 105.307 311.413 88.3467L147.28 283.493C154.24 292.613 161.253 302.32 168.107 313.013C193.067 351.573 186.133 374.693 202.24 374.693C218.293 374.693 211.387 351.547 236.347 312.987Z" fill="#34A853"/>
<g clip-path="url(#clip0_1_18)">
<path d="M214.893 145.686C214.893 149.06 213.553 152.295 211.168 154.68C208.782 157.065 205.547 158.405 202.174 158.405C198.801 158.405 195.566 157.065 193.18 154.68C190.795 152.295 189.455 149.06 189.455 145.686C189.455 142.313 190.795 139.078 193.18 136.692C195.566 134.307 198.801 132.967 202.174 132.967C205.547 132.967 208.782 134.307 211.168 136.692C213.553 139.078 214.893 142.313 214.893 145.686V145.686Z" fill="white"/>
<path d="M258.648 113.075C255.881 108.317 252.522 103.928 248.651 100.014L233.946 108.505C229.413 104.627 224.209 101.61 218.591 99.6031C213.685 104.533 209.666 110.272 206.71 116.568C223.093 115.455 239.989 121.378 255.687 133.652L264.948 128.311C263.497 122.988 261.38 117.869 258.648 113.075V113.075Z" fill="white"/>
<path d="M202.157 210.908C207.669 210.891 213.147 210.172 218.471 208.785V191.804C224.094 189.808 229.308 186.81 233.86 182.953C232.049 176.236 229.089 169.883 225.113 164.174C217.906 178.913 204.314 190.588 185.843 198.052V208.734C191.167 210.148 196.649 210.879 202.157 210.908V210.908Z" fill="white"/>
<path d="M145.683 113.075C142.944 117.85 140.822 122.952 139.366 128.26L154.071 136.75C152.981 142.617 152.97 148.632 154.037 154.502C160.757 156.287 167.735 156.901 174.664 156.317C165.506 142.691 162.185 125.093 164.958 105.355L155.697 100.014C151.825 103.931 148.46 108.319 145.683 113.075V113.075Z" fill="white"/>
<path d="M258.648 178.297C261.387 173.521 263.51 168.42 264.965 163.113L250.26 154.605C251.356 148.682 251.356 142.656 250.294 136.853C243.574 135.069 236.596 134.455 229.666 135.039C238.825 148.665 242.146 166.263 239.373 186.001L248.634 191.342C252.51 187.434 255.875 183.051 258.648 178.297V178.297Z" fill="white"/>
<path d="M145.683 178.297C148.45 183.056 151.809 187.445 155.68 191.359L170.385 182.868C174.918 186.746 180.122 189.763 185.74 191.769C190.756 186.685 194.745 180.985 197.62 174.805C181.238 175.918 164.342 169.995 148.644 157.721L139.383 163.062C140.838 168.403 142.944 173.504 145.683 178.297V178.297Z" fill="white"/>
<path d="M202.157 80.4645C196.645 80.4817 191.167 81.2006 185.843 82.5872V99.5689C180.22 101.564 175.006 104.563 170.453 108.419C172.265 115.136 175.225 121.489 179.201 127.198C186.425 112.459 200.017 100.784 218.488 93.3206V82.6386C213.16 81.216 207.671 80.4853 202.157 80.4645V80.4645Z" fill="white"/>
<path d="M202.157 69.2519C244.303 69.2519 278.591 103.54 278.591 145.686C278.591 187.832 244.303 222.121 202.157 222.121C160.011 222.121 125.722 187.832 125.722 145.686C125.722 103.54 160.011 69.2519 202.157 69.2519ZM202.157 58.0392C178.911 58.0392 156.618 67.2734 140.181 83.7104C123.744 100.147 114.51 122.441 114.51 145.686C114.51 168.932 123.744 191.225 140.181 207.662C156.618 224.099 178.911 233.333 202.157 233.333C225.402 233.333 247.696 224.099 264.133 207.662C280.57 191.225 289.804 168.932 289.804 145.686C289.804 122.441 280.57 100.147 264.133 83.7104C247.696 67.2734 225.402 58.0392 202.157 58.0392V58.0392Z" fill="white"/>
</g>
<defs>
<clipPath id="clip0_1_18">
<rect width="175.294" height="175.294" fill="white" transform="translate(114.51 58.0392)"/>
</clipPath>
</defs>
</svg>
