<svg xmlns="http://www.w3.org/2000/svg" width="256" height="256"><path fill-opacity=".016" d="M0 128.004v128.004l128.25-.254 128.25-.254.254-127.75L257.008 0H0v128.004m.485.496c0 70.4.119 99.053.265 63.672.146-35.38.146-92.98 0-128C.604 29.153.485 58.1.485 128.5" fill="#1976D2" fill-rule="evenodd"/><path fill-opacity=".259" d="M113 .693C94.413 3.817 76.792 13.218 63.435 27.138 46.653 44.626 39.192 62.242 38.29 86.5c-1.025 27.593 6.539 47.895 28.368 76.139 37.593 48.641 43.893 58.706 50.382 80.497 2.399 8.055 6.26 12.864 10.327 12.864 4.67 0 7.358-3.772 11.663-16.363 2.23-6.525 5.363-14.454 6.961-17.62 4.694-9.298 15.868-25.366 30.999-44.574 24.355-30.918 31.74-43.447 36.739-62.324 3.396-12.826 3.804-34.55.866-46.119-4.542-17.887-13.361-32.898-26.607-45.289-11.979-11.205-26.893-19.032-42.196-22.144C138.668.119 119.462-.394 113 .693m5.387 26.252C93.971 30.779 73.45 48.614 66.585 71.968c-9.487 32.277 8.323 66.506 40.409 77.665 15.416 5.361 33.237 3.989 48.972-3.77 10.261-5.059 21.798-16.017 26.703-25.363 10.976-20.913 10.367-45.756-1.575-64.233-5.721-8.852-10.415-13.668-18.758-19.249-12.269-8.206-29.982-12.265-43.949-10.073m-4.115 8.492c-14.129 3.423-29.258 15.244-36.021 28.144-15.778 30.095-.872 67.213 31.547 78.555 7.396 2.587 22.147 3.54 29.294 1.892 18.393-4.24 33.941-17.963 40.804-36.013 2.135-5.615 2.478-8.173 2.483-18.515.005-10.632-.298-12.773-2.653-18.78-7.036-17.941-21.131-30.604-39.186-35.202-7.088-1.805-19.001-1.842-26.268-.081m2.978 8.225c-.802.324-1.25 2.62-1.25 6.404v5.9l-4.75 2.417c-2.612 1.33-6.1 4.252-7.75 6.494-1.65 2.242-3.329 4.086-3.731 4.099-.402.013-.473-1.888-.157-4.226.535-3.964.362-4.373-2.566-6.084-2.429-1.419-3.455-1.571-4.537-.673-2.278 1.89-7.338 10.27-8.935 14.797l-1.484 4.205 3.205 1.623C91.325 81.672 92 82.783 92 89.655c0 3.49.406 6.345.902 6.345.999 0 3.373 6.058 2.655 6.776-.248.248-1.888-.672-3.643-2.046l-3.192-2.498-3.391 2c-2.708 1.598-3.259 2.431-2.731 4.135 1.469 4.743 4.719 10.669 7.815 14.251l3.276 3.789 5.583-2.923c5.165-2.704 5.72-2.803 7.405-1.324 2.791 2.45 8.266 4.992 9.333 4.332.525-.324 2.615-.277 4.645.103l3.691.693-4.459 2.266c-4.307 2.188-4.446 2.403-4.076 6.287l.384 4.021 6.151.646c3.384.356 8.402.266 11.152-.2l5-.847.298-5.981.297-5.98 4.984-2.767c2.741-1.522 5.368-3.772 5.838-5 .469-1.228 1.805-3.09 2.968-4.138L155 109.69v4.54c0 3.777.434 4.824 2.581 6.231 1.419.93 3.177 1.462 3.905 1.183 1.966-.755 7.177-8.716 9.406-14.37l1.953-4.954-5.173-2.952-5.172-2.953-.042-6.105c-.023-3.357-.524-6.713-1.112-7.457-.589-.744-1.378-2.64-1.755-4.213l-.685-2.861 3.642 2.251c3.478 2.149 3.793 2.178 7.031.634 3.022-1.441 3.288-1.884 2.454-4.078-1.721-4.525-5.895-12.055-8.32-15.009l-2.4-2.923-5.3 3.06-5.3 3.06-4.418-2.802c-2.429-1.54-6.64-3.107-9.356-3.48-5.824-.801-6.255-1.887-1.439-3.628 3.137-1.135 3.5-1.647 3.5-4.948 0-2.974-.433-3.799-2.25-4.286-2.672-.716-17.707-.691-19.5.032" fill="#1976D2" fill-rule="evenodd"/><path fill-opacity=".274" d="M116 .584C83.635 6.374 60.605 23.123 47.364 50.5c-6.785 14.028-8.643 22.404-8.651 39-.004 9.322.537 16.411 1.619 21.215 1.818 8.069 5.202 18.219 6.509 19.526.478.478 4.93-3.932 10.038-9.941l9.179-10.8-.779-4.5c-.428-2.475-.777-9.675-.776-16 .004-13.441 2.101-21.574 8.215-31.867 10.947-18.43 30.03-29.803 51.779-30.859 19.317-.938 33.73 4.704 47.559 18.617 14.003 14.089 19.596 28.36 18.657 47.609-.843 17.302-6.583 30.201-18.987 42.669-5.286 5.314-8.799 7.781-16 11.236-10.927 5.243-16.79 6.595-28.59 6.595h-8.766l-15.268 18.108-15.268 18.107 2.68 3.643c14.042 19.083 20.804 31.482 26.457 48.516 3.75 11.302 5.548 13.626 10.539 13.626 4.838 0 6.157-1.894 10.992-15.778 6.793-19.508 14.484-32.128 36.78-60.352 22.501-28.482 29.432-39.186 34.647-53.498 19.22-52.755-6.697-106.658-58.632-121.943-6.753-1.987-11.586-2.67-20.797-2.94-6.6-.194-13.125-.151-14.5.095m0 34.976C90.386 41.081 71.856 64.265 72.088 90.5c.095 10.773.554 10.794 9.42.427 7.161-8.373 7.742-9.36 6.086-10.342-5.832-3.457-6.033-3.871-4.192-8.664 1.913-4.982 7.975-13.745 10.062-14.546.756-.29 2.536.234 3.955 1.164C99.489 59.895 100 61.03 100 64.27c0 3.977.031 4.012 2 2.23 1.1-.995 2-2.253 2-2.795 0-1.241 2.457-3.194 7.202-5.723 3.599-1.919 3.711-2.148 4-8.228l.298-6.254 6.157-.877c3.387-.482 8.674-.562 11.75-.178l5.593.699v4.425c0 4.044-.28 4.544-3.25 5.801l-3.25 1.376 2.75.627c1.512.345 3.795.841 5.073 1.102 1.278.261 4.068 1.659 6.201 3.106l3.878 2.631 5.241-2.835 5.241-2.835 2.617 2.459c3.209 3.015 9.975 16.42 9.046 17.922-.37.6-2.011 1.783-3.646 2.628-2.77 1.432-3.152 1.397-5.59-.521-1.439-1.132-2.795-1.88-3.012-1.662-.7.699.885 5.632 1.809 5.632.491 0 .892 3.06.892 6.801v6.8l4.532 2.203c2.493 1.211 4.78 2.846 5.083 3.634.714 1.861-4.797 13.102-8.549 17.438l-2.922 3.376-3.617-2.235c-3.528-2.18-3.6-2.35-2.944-6.876l.672-4.641-2.377 2.976c-1.308 1.636-2.399 3.211-2.426 3.5-.026.288-2.388 2.822-5.25 5.631-3.939 3.867-5.232 5.87-5.327 8.25-.069 1.729-.181 3.689-.25 4.355-.069.667-1.871 1.626-4.005 2.131-3.534.835-9.515 5.828-9.591 8.005-.043 1.239 11.5-.287 18.543-2.452 16.425-5.049 31.415-20.894 35.975-38.027.786-2.953 1.429-9.419 1.429-14.369 0-16.326-4.37-26.899-15.954-38.595-8.843-8.93-17.15-13.38-28.878-15.472-9.419-1.68-12.857-1.659-21.144.127" fill="#1976D2" fill-rule="evenodd"/><path fill-opacity=".244" d="M116.472.987C77.94 6.375 48.143 34.081 40.349 71.769c-1.206 5.83-1.458 11.135-1.055 22.196.541 14.856 2.288 23.925 6.3 32.706l1.906 4.171 9-10.864c4.95-5.975 8.938-11.677 8.861-12.671-.076-.994-.676-5.392-1.333-9.774-3.87-25.802 11.112-53.507 35.315-65.308 9.028-4.402 17.071-6.217 27.801-6.276l9.356-.052 7-8.518c3.85-4.685 7.797-9.573 8.771-10.863l1.772-2.346-6.772-1.515C138.517.697 124.124-.082 116.472.987m-3.348 35.591c-14.568 3.918-28.782 15.633-35.145 28.966-4.017 8.417-6.382 21.348-5.279 28.859l.8 5.444 7.707-9.174 7.708-9.173-3.448-2c-1.966-1.141-3.452-2.799-3.457-3.86-.013-2.377 5.321-12.414 8.83-16.618l2.696-3.228 3.728 2.199c3.574 2.109 3.703 2.373 3.115 6.354l-.613 4.153 2.367-3.028c1.302-1.666 4.464-5.192 7.027-7.836 3.889-4.01 4.739-4.503 5.134-2.971.261 1.009.526-1.16.59-4.821l.116-6.656 5.001-.688c2.75-.378 4.784-1.039 4.519-1.468-.266-.429.613-1.962 1.951-3.406L128.905 35l-5.203.066c-2.861.036-7.621.716-10.578 1.512m19.689-.895c.721.289 1.584.253 1.916-.079.332-.332-.258-.568-1.312-.525-1.165.048-1.402.285-.604.604m-2 6c.721.289 1.584.253 1.916-.079.332-.332-.258-.568-1.312-.525-1.165.048-1.402.285-.604.604M172.5 44c.995 1.1 2.035 2 2.31 2 .275 0-.315-.9-1.31-2-.995-1.1-2.035-2-2.31-2-.275 0 .315.9 1.31 2m-9.5 4.313c0 .172 1.463 1.635 3.25 3.25l3.25 2.937-2.937-3.25c-2.738-3.029-3.563-3.71-3.563-2.937" fill="#1976D2" fill-rule="evenodd"/></svg>